<svg xmlns="http://www.w3.org/2000/svg" width="150.322" height="32.937" viewBox="0 0 150.322 32.937">
  <g id="Group_66" data-name="Group 66" transform="translate(-150.48 -55.409)">
    <path id="Path_96" data-name="Path 96" d="M157.707,56.113a6.547,6.547,0,0,1,6.117,3.938l-2.648,2.467v-.46a3.2,3.2,0,0,0-2.044-2.969,3.884,3.884,0,0,0-1.4-.264,3.352,3.352,0,0,0-3.435,3.253V78.952h-3.117V62.2a6.094,6.094,0,0,1,4.793-5.88,7.55,7.55,0,0,1,1.73-.2m0-.7a8.213,8.213,0,0,0-1.892.224A6.82,6.82,0,0,0,150.48,62.2V79.655H155V62.078a2.646,2.646,0,0,1,2.732-2.549,3.193,3.193,0,0,1,1.144.217,2.477,2.477,0,0,1,1.593,2.312v2.077l4.169-3.883a7.168,7.168,0,0,0-6.935-4.843Z" transform="translate(0 0)" fill="#c64d10"/>
    <path id="Path_97" data-name="Path 97" d="M165.354,72.841V90.3a6.821,6.821,0,0,1-5.334,6.565,7.318,7.318,0,0,1-8.827-4.619l4.169-3.883v2.077a2.478,2.478,0,0,0,1.593,2.312,2.738,2.738,0,0,0,3.876-2.332V72.841Z" transform="translate(-0.358 -8.742)" fill="#c64d10"/>
    <path id="Path_98" data-name="Path 98" d="M187.649,81.841V72.917h4.506V81.4c0,2.283,1.157,3.617,3.054,3.617,2.045,0,3.38-1.512,3.38-3.973V72.917H203.1V88.482h-3.35l-.475-1.749a6.568,6.568,0,0,1-5.129,2.164C190.11,88.9,187.649,86.169,187.649,81.841Z" transform="translate(-18.639 -8.78)" fill="#c64d10"/>
    <rect id="Rectangle_86" data-name="Rectangle 86" width="4.507" height="15.565" transform="translate(188.515 64.137)" fill="#c64d10"/>
    <path id="Path_99" data-name="Path 99" d="M242.653,80.267c0-4.773,3.528-8.182,8.509-8.182,4.328,0,7.649,2.52,8.36,6.374h-4.328a4.271,4.271,0,0,0-3.973-2.52,4.334,4.334,0,0,0,0,8.657,4.22,4.22,0,0,0,4.062-2.787h4.388c-.83,4.091-4.121,6.67-8.509,6.67C246.151,88.48,242.653,85.07,242.653,80.267Z" transform="translate(-46.222 -8.363)" fill="#c64d10"/>
    <path id="Path_100" data-name="Path 100" d="M282.2,80.267c0-4.833,3.469-8.182,8.509-8.182,5.337,0,8.717,3.795,8.45,9.487H286.68a3.9,3.9,0,0,0,4.062,3.291,4.3,4.3,0,0,0,3.557-1.631h4.566a8.49,8.49,0,0,1-8.212,5.247C285.642,88.48,282.2,85.13,282.2,80.267Zm12.6-1.541a4.208,4.208,0,0,0-8.094,0Z" transform="translate(-66.055 -8.363)" fill="#c64d10"/>
    <g id="Group_65" data-name="Group 65" transform="translate(235.941 57.87)">
      <path id="Path_101" data-name="Path 101" d="M330.579,88.59c-5.106,0-8.672-3.449-8.672-8.387,0-4.843,3.647-8.358,8.672-8.358,4.376,0,7.8,2.624,8.521,6.53l.106.575h-5.058l-.132-.279a3.616,3.616,0,0,0-3.382-2.145,3.683,3.683,0,0,0,0,7.354,3.578,3.578,0,0,0,3.45-2.363l.117-.319h5.156l-.118.584A8.426,8.426,0,0,1,330.579,88.59Zm0-15.772c-4.533,0-7.7,3.037-7.7,7.385,0,4.365,3.166,7.414,7.7,7.414,3.786,0,6.635-2.069,7.569-5.444H334.87a4.529,4.529,0,0,1-4.234,2.681,4.655,4.655,0,0,1,0-9.3,4.6,4.6,0,0,1,4.12,2.424h3.257C337.164,74.823,334.309,72.818,330.579,72.818Z" transform="translate(-321.907 -66.111)" fill="#c64d10"/>
      <path id="Path_102" data-name="Path 102" d="M366.52,82.424h-5.309V60.345h5.309Zm-4.335-.974h3.362V61.319h-3.362Z" transform="translate(-341.617 -60.345)" fill="#c64d10"/>
      <path id="Path_103" data-name="Path 103" d="M384.763,88.991c-4.153,0-6.733-2.788-6.733-7.275V72.645h5.309v8.644c0,1.9.893,2.993,2.451,2.993,1.706,0,2.764-1.278,2.764-3.335v-8.3h5.309V88.592h-4.082l-.333-1.229A7.031,7.031,0,0,1,384.763,88.991ZM379,73.619v8.1c0,3.945,2.153,6.3,5.759,6.3a5.864,5.864,0,0,0,4.565-1.912l.6-.7.6,2.211h2.364v-14h-3.362v7.328c0,2.617-1.467,4.308-3.738,4.308-2.112,0-3.424-1.52-3.424-3.966v-7.67Z" transform="translate(-350.051 -66.513)" fill="#c64d10"/>
      <path id="Path_104" data-name="Path 104" d="M426.089,82.823a7.976,7.976,0,0,1-5.106-1.714l-.373,1.315h-4.077V60.345h5.309V67.2a8.178,8.178,0,0,1,4.247-1.126,7.976,7.976,0,0,1,8.131,8.358C434.22,79.374,430.876,82.823,426.089,82.823Zm-5.6-3.529.587.587a6.913,6.913,0,0,0,5.017,1.968c4.214,0,7.157-3.049,7.157-7.414,0-4.348-2.943-7.385-7.157-7.385a7.018,7.018,0,0,0-4.431,1.463l-.79.628V61.319h-3.362V81.45h2.368Zm4.834-.208a4.651,4.651,0,1,1,4.622-4.651A4.436,4.436,0,0,1,425.32,79.087Zm0-8.328a3.677,3.677,0,0,0,0,7.354,3.468,3.468,0,0,0,3.648-3.677A3.5,3.5,0,0,0,425.32,70.759Z" transform="translate(-369.359 -60.345)" fill="#c64d10"/>
    </g>
  </g>
</svg>
